<?xml version="1.0" encoding="UTF-8"?>
<svg version="1.1" xmlns="http://www.w3.org/2000/svg" width="149" height="140">
<path d="M0 0 C49.17 0 98.34 0 149 0 C149 46.2 149 92.4 149 140 C99.83 140 50.66 140 0 140 C0 93.8 0 47.6 0 0 Z " fill="#FCFCFC" transform="translate(0,0)"/>
<path d="M0 0 C9.28975116 7.5249808 17.48596955 15.89566904 20 28 C20.72174263 36.6437272 20.3807334 45.34466065 20 54 C20.99 53.34 21.98 52.68 23 52 C26.5 52.0625 26.5 52.0625 30 53 C32.85245536 56.66873307 33.37645149 59.45084462 33.36328125 64.03515625 C33.36231445 65.74348633 33.36231445 65.74348633 33.36132812 67.48632812 C33.34521484 68.66646484 33.32910156 69.84660156 33.3125 71.0625 C33.31572266 72.24650391 33.31894531 73.43050781 33.32226562 74.65039062 C33.26063724 84.53894493 33.26063724 84.53894493 31 88 C28.01405576 89.49297212 25.29146376 89.11755228 22 89 C21.34 88.67 20.68 88.34 20 88 C19.896875 88.94875 19.79375 89.8975 19.6875 90.875 C19 94 19 94 16 96 C12.5625 96.4375 12.5625 96.4375 9 96 C5.83234806 93.17707353 4.75259827 90.87694017 4.45068359 86.74804688 C4.41095847 85.07199484 4.39486464 83.39526894 4.3984375 81.71875 C4.38986725 80.82764526 4.381297 79.93654053 4.37246704 79.01843262 C4.36100878 77.13911328 4.35995918 75.25970526 4.36865234 73.38037109 C4.37498115 70.50855217 4.32801105 67.64084198 4.27734375 64.76953125 C4.27279803 62.94010935 4.27139065 61.1106764 4.2734375 59.28125 C4.25501801 58.42591675 4.23659851 57.5705835 4.21762085 56.68933105 C4.30691844 50.92375292 4.30691844 50.92375292 6.26812744 48.30981445 C9.0606318 45.8241632 10.53791921 44.98256299 14.3125 45.125 C17 46 17 46 18 47 C17.21585561 34.84576202 12.66365631 24.01076308 3.48828125 15.734375 C-2.59267182 11.05004596 -8.673651 8.19047935 -16 6 C-16.99 5.67 -17.98 5.34 -19 5 C-33.40384092 3.95624341 -45.57975126 5.413241 -57.0078125 15.125 C-65.53013947 23.14601361 -72.44573879 32.9659608 -73.11328125 45.05078125 C-73.12320194 46.7009231 -73.06869755 48.35125891 -73 50 C-72.62875 49.505 -72.2575 49.01 -71.875 48.5 C-70 47 -70 47 -67.125 46.5 C-62.8308491 47.18706414 -61.64059279 48.56860324 -59 52 C-58.27434764 55.09750161 -58.29841987 58.11065539 -58.3359375 61.28125 C-58.33115387 62.17235474 -58.32637024 63.06345947 -58.32144165 63.98156738 C-58.31804728 65.86093924 -58.32721738 67.7403705 -58.34814453 69.61962891 C-58.37491844 72.49125198 -58.34838289 75.35896679 -58.31640625 78.23046875 C-58.31971043 80.05990443 -58.32611684 81.88933769 -58.3359375 83.71875 C-58.32581635 84.57408325 -58.31569519 85.4294165 -58.30526733 86.31066895 C-58.39089925 90.68079684 -58.59705334 92.4779191 -61.35009766 96.04492188 C-64 98 -64 98 -67.0625 98.5625 C-70.65179197 97.87518877 -71.873528 96.94434585 -74 94 C-74 92.68 -74 91.36 -74 90 C-74.99 90.495 -74.99 90.495 -76 91 C-79.375 91.375 -79.375 91.375 -83 91 C-85.66317796 88.4079666 -86.87486431 86.71728722 -87.51757812 83.03320312 C-87.52208984 81.96005859 -87.52660156 80.88691406 -87.53125 79.78125 C-87.53640625 78.60175781 -87.5415625 77.42226562 -87.546875 76.20703125 C-87.52367188 74.37205078 -87.52367188 74.37205078 -87.5 72.5 C-87.51546875 71.27667969 -87.5309375 70.05335937 -87.546875 68.79296875 C-87.54171875 67.61347656 -87.5365625 66.43398437 -87.53125 65.21875 C-87.52673828 64.14560547 -87.52222656 63.07246094 -87.51757812 61.96679688 C-86.8743202 58.27959391 -85.6731745 56.58778472 -83 54 C-79.25 53.6875 -79.25 53.6875 -76 54 C-76.02618408 53.40687012 -76.05236816 52.81374023 -76.0793457 52.20263672 C-76.78385699 33.77119463 -74.75781183 19.358494 -61.75 5.3125 C-46.01237082 -9.49736501 -18.21357349 -12.36680379 0 0 Z " fill="#060606" transform="translate(102,18)"/>
<path d="M0 0 C6.28582061 3.32446363 12.11369204 7.02598381 17.875 11.1875 C19.35140155 12.2437146 20.82795768 13.29971317 22.3046875 14.35546875 C22.94390137 14.81590576 23.58311523 15.27634277 24.24169922 15.75073242 C25.80737582 16.86314108 27.4019443 17.93462954 29 19 C24.49333423 41.94510542 24.49333423 41.94510542 22 52 C21.82887695 52.73589355 21.65775391 53.47178711 21.48144531 54.22998047 C20.90743595 56.68063488 20.30035503 59.1212982 19.6875 61.5625 C19.510979 62.3373877 19.33445801 63.11227539 19.15258789 63.91064453 C18.09269912 67.97571392 17.40551547 69.6527293 14.1171875 72.46875 C9.99836901 74.49202926 6.57689107 75.22842155 2 75 C-0.875 73.75 -0.875 73.75 -3 72 C-3.598125 71.608125 -4.19625 71.21625 -4.8125 70.8125 C-6.4377713 68.33182276 -6.65837981 66.00682253 -6.5390625 63.078125 C-5.66578538 59.71157844 -3.80553648 58.03636349 -1.06640625 56 C2.46343131 54.29179884 5.37587279 54.74679713 9 56 C11.01385823 56.97178959 13.01658374 57.9674982 15 59 C15.18175781 57.38931641 15.18175781 57.38931641 15.3671875 55.74609375 C15.53615615 54.30986025 15.70544404 52.87366428 15.875 51.4375 C15.95363281 50.73302734 16.03226563 50.02855469 16.11328125 49.30273438 C16.66527095 44.69574341 17.71098156 40.46823618 19 36 C19.46661021 32.16338021 19.46661021 32.16338021 17.68652344 30.65966797 C17.08356445 30.27439941 16.48060547 29.88913086 15.859375 29.4921875 C15.20066406 29.06292969 14.54195312 28.63367188 13.86328125 28.19140625 C13.16589844 27.75699219 12.46851563 27.32257813 11.75 26.875 C11.06808594 26.43285156 10.38617188 25.99070312 9.68359375 25.53515625 C6.52459617 23.50481023 3.3805645 21.64180201 0 20 C-0.02578125 20.71542969 -0.0515625 21.43085937 -0.078125 22.16796875 C-0.47602353 29.15832249 -1.79351059 35.19520961 -4.04296875 41.81640625 C-4.97515892 44.91736538 -5.39237004 47.78994799 -5.75 51 C-6.24543542 53.97695846 -6.58716811 55.54229507 -8.6171875 57.79296875 C-13.36005674 61.08714057 -17.33834913 61.82185254 -23 61 C-28.5 58 -28.5 58 -30 55 C-30.46650092 50.25724067 -30.66962226 48.07139562 -28.125 44 C-23.73010427 41.18726673 -20.08407766 41.34157027 -15 42 C-11.875 43 -11.875 43 -10 44 C-8.91742902 38.62771333 -7.85307079 33.25244055 -6.81640625 27.87109375 C-6.39850187 25.72654996 -5.98053234 23.58201886 -5.5625 21.4375 C-5.25602539 19.8297168 -5.25602539 19.8297168 -4.94335938 18.18945312 C-3.71281991 11.9217521 -2.16360042 6.01140291 0 0 Z " fill="#0D0D0D" transform="translate(76,51)"/>
<path d="M0 0 C4.63569819 1.5747219 8.29877655 4.06323725 12.25 6.875 C13.20519531 7.52662109 13.20519531 7.52662109 14.1796875 8.19140625 C18.83832843 11.49210291 18.83832843 11.49210291 19.68652344 14.15673828 C19.7899707 14.76501465 19.89341797 15.37329102 20 16 C15.18712522 15.0348835 11.74748091 12.41722857 7.75 9.6875 C7.00492187 9.20087891 6.25984375 8.71425781 5.4921875 8.21289062 C4.78835937 7.73400391 4.08453125 7.25511719 3.359375 6.76171875 C2.71452148 6.32819092 2.06966797 5.89466309 1.40527344 5.44799805 C0 4 0 4 0 0 Z " fill="#E6E6E6" transform="translate(78,62)"/>
</svg>
